<?xml version="1.0" encoding="UTF-8"?>
<!DOCTYPE svg PUBLIC "-//W3C//DTD SVG 1.1//EN" "http://www.w3.org/Graphics/SVG/1.1/DTD/svg11.dtd">
<!-- Creator: CorelDRAW 2020 (64-Bit) -->
<svg xmlns="http://www.w3.org/2000/svg" xml:space="preserve" width="38.7549mm" height="54.1866mm" version="1.1" style="shape-rendering:geometricPrecision; text-rendering:geometricPrecision; image-rendering:optimizeQuality; fill-rule:evenodd; clip-rule:evenodd"
viewBox="0 0 275.2 384.78"
 xmlns:xlink="http://www.w3.org/1999/xlink"
 xmlns:xodm="http://www.corel.com/coreldraw/odm/2003">
 <defs>
  <style type="text/css">
   <![CDATA[
    .str0 {stroke:#18B35E;stroke-width:0.54;stroke-miterlimit:10}
    .fil1 {fill:#FEFEFE;fill-rule:nonzero}
    .fil0 {fill:#CFD1D2;fill-rule:nonzero}
    .fil2 {fill:#18B35E;fill-rule:nonzero}
    .fil3 {fill:#2B6A46;fill-rule:nonzero}
   ]]>
  </style>
 </defs>
 <g id="Слой_x0020_1">
  <metadata id="CorelCorpID_0Corel-Layer"/>
  <g id="_2862556031072">
   <g>
    <path class="fil0" d="M30.39 384.78c-16.25,0.02 -29.52,-12.96 -29.55,-28.94l-0.84 -326.73c-0.05,-16.08 13.2,-29.14 29.52,-29.11l215.91 0.4c16.25,0.03 29.47,13.1 29.47,29.15l0 326.03c0,15.95 -13.17,28.93 -29.36,28.95l-215.14 0.25z"/>
    <path class="fil1" d="M33.33 384.37c-16.04,0 -29.1,-13.01 -29.1,-29l0 -325.95c0,-15.99 13.06,-28.99 29.1,-28.99l212.77 0c16.04,0 29.1,13 29.1,28.99l0 325.95c0,15.99 -13.05,29 -29.1,29l-212.77 0z"/>
   </g>
   <g>
    <polygon class="fil2 str0" points="42.02,89.66 33.96,79.48 42.02,69.3 50.09,79.48 "/>
    <path class="fil1" d="M42.02 89.66l-0.07 -0.08 0 0 0.07 0.08 8.06 -10.18 -8.06 10.18zm-0.07 -20.28l0 -0 0.07 -0.08 -0.07 0.08z"/>
    <polygon class="fil3" points="42.02,89.66 41.96,89.58 41.96,69.38 42.02,69.3 50.09,79.48 "/>
    <polygon class="fil2 str0" points="233.18,295.12 241.24,305.3 233.18,315.48 225.11,305.3 "/>
    <path class="fil1" d="M233.18 315.48l-8.07 -10.18 8.07 10.18 0.05 -0.07 0 0 -0.05 0.07zm0.05 -20.29l-0.05 -0.07 0.05 0.07 0 0z"/>
    <polygon class="fil3" points="233.18,315.48 225.11,305.3 233.18,295.12 233.23,295.19 233.23,315.41 "/>
    <polygon class="fil2 str0" points="135.17,120.72 79.79,190.64 135.17,260.59 190.56,190.64 "/>
    <polygon class="fil3" points="135.17,260.59 135.17,260.59 134.81,260.13 134.81,121.18 135.17,120.72 190.56,190.64 "/>
    <polygon class="fil3" points="34.24,31.83 45.09,30.06 45.09,57.94 39.82,57.94 39.82,35.94 33.81,36.89 "/>
    <polygon class="fil3" points="240.95,352.95 230.1,354.72 230.1,326.84 235.38,326.84 235.38,348.84 241.39,347.89 "/>
   </g>
  </g>
 </g>
</svg>
