<?xml version="1.0" encoding="UTF-8"?>
<!DOCTYPE svg PUBLIC "-//W3C//DTD SVG 1.1//EN" "http://www.w3.org/Graphics/SVG/1.1/DTD/svg11.dtd">
<!-- Creator: CorelDRAW 2020 (64-Bit) -->
<svg xmlns="http://www.w3.org/2000/svg" xml:space="preserve" width="38.7549mm" height="54.1866mm" version="1.1" style="shape-rendering:geometricPrecision; text-rendering:geometricPrecision; image-rendering:optimizeQuality; fill-rule:evenodd; clip-rule:evenodd"
viewBox="0 0 328.75 459.65"
 xmlns:xlink="http://www.w3.org/1999/xlink"
 xmlns:xodm="http://www.corel.com/coreldraw/odm/2003">
 <defs>
  <style type="text/css">
   <![CDATA[
    .str0 {stroke:#18B35E;stroke-width:0.65;stroke-miterlimit:10}
    .fil1 {fill:#FEFEFE;fill-rule:nonzero}
    .fil0 {fill:#CFD1D2;fill-rule:nonzero}
    .fil2 {fill:#18B35E;fill-rule:nonzero}
    .fil3 {fill:#2B6A46;fill-rule:nonzero}
   ]]>
  </style>
 </defs>
 <g id="Слой_x0020_1">
  <metadata id="CorelCorpID_0Corel-Layer"/>
  <g id="_2860880599968">
   <g>
    <path class="fil0" d="M36.31 459.65c-19.42,0.03 -35.26,-15.48 -35.31,-34.57l-1 -390.3c-0.06,-19.21 15.77,-34.81 35.26,-34.78l257.93 0.48c19.41,0.04 35.2,15.65 35.2,34.82l0 389.47c0,19.05 -15.73,34.55 -35.08,34.58l-257.01 0.3z"/>
    <path class="fil1" d="M39.81 459.16c-19.16,0 -34.76,-15.55 -34.76,-34.65l0 -389.38c0,-19.1 15.6,-34.64 34.76,-34.64l254.18 0c19.17,0 34.76,15.53 34.76,34.64l0 389.38c0,19.1 -15.59,34.65 -34.76,34.65l-254.18 0z"/>
   </g>
   <g>
    <polygon class="fil2 str0" points="50.29,108 40.02,95.04 50.29,82.08 60.55,95.04 "/>
    <path class="fil1" d="M50.29 108l-0.08 -0.1 0 0 0.08 0.1 10.26 -12.96 -10.26 12.96zm-0.08 -25.82l0 0 0.08 -0.1 -0.08 0.1z"/>
    <polygon class="fil3" points="50.29,108 50.21,107.91 50.21,82.18 50.29,82.08 60.55,95.04 "/>
    <polygon class="fil2" points="278.47,351.64 288.73,364.59 278.47,377.57 268.2,364.59 "/>
    <polygon class="fil3" points="278.47,377.57 268.2,364.59 278.47,351.64 278.53,351.73 278.53,377.48 "/>
    <polygon class="fil2 str0" points="161.48,118.09 128.43,159.82 161.48,201.57 194.54,159.82 "/>
    <polygon class="fil3" points="161.48,201.57 161.48,201.57 161.26,201.29 161.26,118.36 161.48,118.09 194.54,159.82 "/>
    <polygon class="fil2 str0" points="161.48,262.3 194.54,304.03 161.48,345.77 128.43,304.03 "/>
    <path class="fil1" d="M161.48 345.77l-33.06 -41.74 33.06 41.74 0.22 -0.27 0 0 -0.22 0.27zm0.22 -83.2l-0.22 -0.27 0.22 0.27z"/>
    <polygon class="fil3" points="161.48,345.77 128.43,304.03 161.48,262.3 161.7,262.57 161.7,345.49 "/>
    <path class="fil3" d="M288.77 390.15l0.57 4.8c-2.44,1.55 -4.63,3.02 -6.55,4.41 -1.93,1.39 -3.56,2.76 -4.9,4.1 -1.34,1.34 -2.36,2.67 -3.07,3.97 -0.71,1.31 -1.06,2.63 -1.06,3.97 0.03,2.06 0.68,3.65 1.93,4.77 1.26,1.12 2.97,1.68 5.13,1.68 1.41,0 2.87,-0.18 4.39,-0.54 1.51,-0.36 3.04,-0.95 4.59,-1.78l-1.13 6.24c-1.1,0.62 -2.42,1.1 -3.95,1.44 -1.53,0.34 -3.07,0.52 -4.62,0.52 -3.96,0 -7.05,-0.99 -9.29,-2.97 -2.24,-1.98 -3.35,-4.77 -3.35,-8.38 0,-3.16 1.11,-6.07 3.33,-8.72 2.22,-2.65 5.41,-5.3 9.57,-7.94l-14.55 0 0.57 -5.57 22.39 0z"/>
    <path class="fil3" d="M39.98 69.5l-0.57 -4.8c2.44,-1.55 4.63,-3.02 6.55,-4.41 1.93,-1.39 3.56,-2.76 4.9,-4.1 1.34,-1.34 2.36,-2.67 3.07,-3.97 0.71,-1.31 1.06,-2.63 1.06,-3.97 -0.03,-2.06 -0.68,-3.65 -1.93,-4.77 -1.26,-1.12 -2.97,-1.68 -5.13,-1.68 -1.41,0 -2.87,0.18 -4.39,0.54 -1.51,0.36 -3.04,0.95 -4.59,1.78l1.13 -6.24c1.1,-0.62 2.42,-1.1 3.95,-1.44 1.53,-0.34 3.07,-0.52 4.62,-0.52 3.96,0 7.05,0.99 9.29,2.97 2.24,1.98 3.35,4.77 3.35,8.38 0,3.16 -1.11,6.07 -3.33,8.72 -2.22,2.65 -5.41,5.3 -9.57,7.94l14.55 0 -0.57 5.57 -22.39 0z"/>
   </g>
  </g>
 </g>
</svg>
