<?xml version="1.0" encoding="UTF-8"?>
<!DOCTYPE svg PUBLIC "-//W3C//DTD SVG 1.1//EN" "http://www.w3.org/Graphics/SVG/1.1/DTD/svg11.dtd">
<!-- Creator: CorelDRAW 2020 (64-Bit) -->
<svg xmlns="http://www.w3.org/2000/svg" xml:space="preserve" width="38.7549mm" height="54.1866mm" version="1.1" style="shape-rendering:geometricPrecision; text-rendering:geometricPrecision; image-rendering:optimizeQuality; fill-rule:evenodd; clip-rule:evenodd"
viewBox="0 0 236.33 330.44"
 xmlns:xlink="http://www.w3.org/1999/xlink"
 xmlns:xodm="http://www.corel.com/coreldraw/odm/2003">
 <defs>
  <style type="text/css">
   <![CDATA[
    .str0 {stroke:#18B35E;stroke-width:0.46;stroke-miterlimit:10}
    .fil1 {fill:#FEFEFE;fill-rule:nonzero}
    .fil0 {fill:#CFD1D2;fill-rule:nonzero}
    .fil2 {fill:#18B35E;fill-rule:nonzero}
    .fil3 {fill:#2B6A46;fill-rule:nonzero}
   ]]>
  </style>
 </defs>
 <g id="Слой_x0020_1">
  <metadata id="CorelCorpID_0Corel-Layer"/>
  <g id="_2860885746672">
   <g>
    <path class="fil0" d="M26.1 330.44c-13.96,0.02 -25.35,-11.13 -25.38,-24.85l-0.72 -280.59c-0.04,-13.81 11.34,-25.02 25.35,-25l185.42 0.34c13.95,0.03 25.31,11.25 25.31,25.03l0 279.99c0,13.69 -11.31,24.84 -25.22,24.86l-184.76 0.22z"/>
    <path class="fil1" d="M28.62 330.09c-13.77,0 -24.99,-11.18 -24.99,-24.91l0 -279.92c0,-13.73 11.22,-24.9 24.99,-24.9l182.73 0c13.78,0 24.99,11.17 24.99,24.9l0 279.92c0,13.73 -11.21,24.91 -24.99,24.91l-182.73 0z"/>
   </g>
   <g>
    <polygon class="fil2 str0" points="160.03,27.88 136.31,57.84 160.03,87.79 183.75,57.84 "/>
    <polygon class="fil3" points="160.04,27.89 160.03,27.89 159.88,28.08 159.88,87.59 160.03,87.79 183.75,57.84 "/>
    <polygon class="fil2 str0" points="74.82,239.68 98.53,269.63 74.82,299.58 51.1,269.63 "/>
    <polygon class="fil3" points="74.82,299.58 51.1,269.63 74.82,239.68 74.97,239.87 74.97,299.39 "/>
    <polygon class="fil2 str0" points="74.82,27.88 98.53,57.84 74.82,87.79 51.1,57.84 "/>
    <polygon class="fil3" points="74.82,87.79 51.1,57.84 74.82,27.88 74.97,28.08 74.97,87.59 "/>
    <polygon class="fil2 str0" points="117.42,133.78 93.7,163.73 117.42,193.69 141.14,163.73 "/>
    <polygon class="fil3" points="117.42,193.69 117.42,193.69 117.27,193.49 117.27,133.98 117.42,133.78 141.14,163.73 "/>
    <polygon class="fil2" points="160.03,239.68 136.31,269.63 160.03,299.58 183.75,269.63 "/>
    <polygon class="fil3 str0" points="160.03,299.58 160.03,299.58 159.88,299.39 159.88,239.87 160.03,239.68 183.75,269.63 "/>
    <polygon class="fil2 str0" points="24.3,77.22 17.39,68.5 24.3,59.78 31.21,68.5 "/>
    <polygon class="fil1" points="24.3,77.22 24.25,77.15 24.25,77.15 24.3,77.22 31.21,68.5 "/>
    <polygon class="fil3" points="24.3,77.22 24.25,77.15 24.25,59.85 24.3,59.78 31.21,68.5 "/>
    <polygon class="fil2 str0" points="212.03,253.22 218.94,261.94 212.03,270.66 205.13,261.94 "/>
    <path class="fil1" d="M212.03 270.66l-6.9 -8.72 6.9 8.72 0.05 -0.06 0 0 -0.05 0.06zm0.05 -17.38l-0.05 -0.06 0.05 0.06 0 0z"/>
    <polygon class="fil3" points="212.03,270.66 205.13,261.94 212.03,253.22 212.08,253.28 212.08,270.6 "/>
    <path class="fil3" d="M24.2 33.89c2.69,0 4.75,0.67 6.18,2 1.43,1.33 2.15,3.25 2.15,5.74 0,1.26 -0.22,2.4 -0.67,3.42 -0.44,1.02 -1.08,1.89 -1.91,2.61 -0.83,0.72 -1.84,1.26 -3.04,1.65 -1.2,0.38 -2.54,0.57 -4.02,0.57 -1.11,0 -2.25,-0.13 -3.41,-0.39 -1.16,-0.26 -2.21,-0.64 -3.15,-1.13l-0.7 -4.41c1.06,0.72 2.23,1.25 3.5,1.61 1.27,0.36 2.52,0.54 3.76,0.54 1.68,0 2.97,-0.38 3.87,-1.15 0.9,-0.76 1.34,-1.8 1.31,-3.11 -0.03,-1.36 -0.46,-2.39 -1.3,-3.09 -0.84,-0.7 -2.02,-1.05 -3.55,-1.05 -0.96,0 -1.88,0.09 -2.76,0.26 -0.88,0.17 -1.71,0.37 -2.5,0.59l-1.81 -2.22 1.04 -10.52 13.96 0 -0.33 3.96 -10.11 0 -0.52 4.63c0.64,-0.17 1.29,-0.3 1.94,-0.39 0.65,-0.09 1.34,-0.13 2.06,-0.13z"/>
    <path class="fil3" d="M212.14 296.55c-2.69,0 -4.75,-0.67 -6.18,-2 -1.43,-1.33 -2.15,-3.25 -2.15,-5.74 0,-1.26 0.22,-2.4 0.67,-3.42 0.44,-1.02 1.08,-1.89 1.91,-2.61 0.83,-0.72 1.84,-1.26 3.04,-1.65 1.2,-0.38 2.54,-0.57 4.02,-0.57 1.11,0 2.25,0.13 3.41,0.39 1.16,0.26 2.21,0.64 3.15,1.13l0.7 4.41c-1.06,-0.72 -2.23,-1.25 -3.5,-1.61 -1.27,-0.36 -2.52,-0.54 -3.76,-0.54 -1.68,0 -2.97,0.38 -3.87,1.15 -0.9,0.76 -1.34,1.8 -1.31,3.11 0.03,1.36 0.46,2.39 1.3,3.09 0.84,0.7 2.02,1.05 3.55,1.05 0.96,0 1.88,-0.09 2.76,-0.26 0.88,-0.17 1.71,-0.37 2.5,-0.59l1.81 2.22 -1.04 10.52 -13.96 0 0.33 -3.96 10.11 0 0.52 -4.63c-0.64,0.17 -1.29,0.3 -1.94,0.39 -0.65,0.09 -1.34,0.13 -2.06,0.13z"/>
   </g>
  </g>
 </g>
</svg>
