<?xml version="1.0" encoding="UTF-8"?>
<!DOCTYPE svg PUBLIC "-//W3C//DTD SVG 1.1//EN" "http://www.w3.org/Graphics/SVG/1.1/DTD/svg11.dtd">
<!-- Creator: CorelDRAW 2020 (64-Bit) -->
<svg xmlns="http://www.w3.org/2000/svg" xml:space="preserve" width="38.7549mm" height="54.1866mm" version="1.1" style="shape-rendering:geometricPrecision; text-rendering:geometricPrecision; image-rendering:optimizeQuality; fill-rule:evenodd; clip-rule:evenodd"
viewBox="0 0 546.75 764.45"
 xmlns:xlink="http://www.w3.org/1999/xlink"
 xmlns:xodm="http://www.corel.com/coreldraw/odm/2003">
 <defs>
  <style type="text/css">
   <![CDATA[
    .fil1 {fill:#FEFEFE;fill-rule:nonzero}
    .fil0 {fill:#CFD1D2;fill-rule:nonzero}
    .fil2 {fill:#18B35E;fill-rule:nonzero}
    .fil3 {fill:#2B6A46;fill-rule:nonzero}
   ]]>
  </style>
 </defs>
 <g id="Слой_x0020_1">
  <metadata id="CorelCorpID_0Corel-Layer"/>
  <g id="_2278407718784">
   <g>
    <path class="fil0" d="M60.38 764.45c-32.29,0.05 -58.64,-25.74 -58.72,-57.5l-1.66 -649.12c-0.09,-31.95 26.23,-57.89 58.64,-57.84l428.96 0.8c32.28,0.06 58.55,26.04 58.55,57.91l0 647.73c0,31.68 -26.16,57.47 -58.34,57.51l-427.43 0.5z"/>
    <path class="fil1" d="M66.21 763.64c-31.86,0 -57.81,-25.86 -57.81,-57.62l0 -647.58c0,-31.77 25.95,-57.6 57.81,-57.6l422.73 0c31.87,0 57.81,25.83 57.81,57.6l0 647.58c0,31.77 -25.94,57.62 -57.81,57.62l-422.73 0z"/>
   </g>
   <polygon class="fil2" points="369.96,65.29 424.69,134.41 369.96,203.54 315.22,134.41 "/>
   <polygon class="fil3" points="369.96,203.54 315.22,134.41 369.96,65.29 370.33,65.76 370.33,203.07 "/>
   <polygon class="fil2" points="268.45,309.68 323.19,378.77 268.45,447.92 213.72,378.77 "/>
   <polygon class="fil1" points="268.81,310.14 268.45,309.68 "/>
   <polygon class="fil3" points="268.45,447.92 213.72,378.77 268.45,309.68 268.81,310.14 268.81,447.46 "/>
   <polygon class="fil2" points="369.96,228.22 424.69,297.3 369.96,366.47 315.22,297.3 "/>
   <polygon class="fil3" points="369.96,366.47 315.22,297.3 369.96,228.22 370.33,228.68 370.33,366 "/>
   <polygon class="fil2" points="173.3,391.12 118.57,460.23 173.3,529.37 228.03,460.23 "/>
   <polygon class="fil3" points="173.3,529.37 173.3,529.37 172.93,528.92 172.93,391.59 173.3,391.12 228.03,460.23 "/>
   <polygon class="fil2" points="173.3,554.05 118.57,623.15 173.3,692.27 228.03,623.15 "/>
   <path class="fil1" d="M173.3 692.27l-0.36 -0.44 0 -0.02 0.36 0.46 54.73 -69.12 -54.73 69.12zm-0.36 -137.77l0 0 0.36 -0.45 -0.36 0.45z"/>
   <polygon class="fil3" points="173.3,692.27 172.93,691.81 172.93,554.5 173.3,554.05 228.03,623.15 "/>
   <polygon class="fil2" points="173.32,65.29 228.03,134.41 173.32,203.54 118.57,134.41 "/>
   <polygon class="fil3" points="173.32,203.54 118.57,134.41 173.32,65.29 173.66,65.76 173.66,203.07 "/>
   <polygon class="fil2" points="173.32,228.22 228.03,297.3 173.32,366.47 118.57,297.3 "/>
   <polygon class="fil3" points="173.32,366.47 118.57,297.3 173.32,228.22 173.66,228.68 173.66,366 "/>
   <polygon class="fil2" points="369.96,391.12 315.22,460.23 369.96,529.37 424.69,460.23 "/>
   <polygon class="fil3" points="369.96,529.37 369.96,529.37 369.6,528.92 369.6,391.59 369.96,391.12 424.69,460.23 "/>
   <polygon class="fil2" points="369.96,554.05 315.22,623.15 369.96,692.27 424.69,623.15 "/>
   <path class="fil1" d="M369.96 692.27l-0.36 -0.44 0 -0.02 0.36 0.46 54.73 -69.12 -54.73 69.12zm-0.36 -137.77l0 0 0.36 -0.45 -0.36 0.45z"/>
   <polygon class="fil3" points="369.96,692.27 369.6,691.81 369.6,554.5 369.96,554.05 424.69,623.15 "/>
   <polygon class="fil2" points="56.74,179.14 40.78,159.02 56.74,138.89 72.67,159.02 "/>
   <path class="fil1" d="M56.74 179.14l-0.13 -0.16 0 -0.02 0.13 0.18 15.93 -20.12 -15.93 20.12zm-0.13 -40.07l0 -0.02 0.13 -0.16 -0.13 0.18z"/>
   <polygon class="fil3" points="56.74,179.14 56.61,178.96 56.61,139.07 56.74,138.89 72.67,159.02 "/>
   <polygon class="fil2" points="489.97,585.3 505.9,605.42 489.97,625.53 474.03,605.42 "/>
   <path class="fil1" d="M489.97 625.53l-15.94 -20.11 15.94 20.11 0.1 -0.13 0 0.01 -0.1 0.12zm0.1 -40.1l-0.1 -0.14 0.1 0.12 0 0.02z"/>
   <polygon class="fil3" points="489.97,625.53 474.03,605.42 489.97,585.3 490.07,585.43 490.07,625.4 "/>
   <path class="fil3" d="M59.05 58.44c3.26,0 6.25,0.53 8.97,1.6 2.72,1.07 5.06,2.6 7.01,4.62 1.95,2.01 3.48,4.5 4.57,7.46 1.1,2.96 1.64,6.36 1.64,10.21 0,4.68 -0.75,9.03 -2.26,13.05 -1.51,4.03 -3.64,7.64 -6.39,10.83 -2.75,3.2 -6.1,5.93 -10.03,8.21 -3.94,2.28 -8.3,4.04 -13.1,5.28l-5.51 -8.17c6.75,-1.42 12.21,-3.58 16.38,-6.48 4.17,-2.9 7.21,-6.69 9.1,-11.37 -1.84,1.95 -3.82,3.32 -5.95,4.09 -2.13,0.77 -4.41,1.15 -6.84,1.15 -2.66,0 -5.15,-0.47 -7.46,-1.42 -2.31,-0.95 -4.34,-2.29 -6.08,-4.04 -1.75,-1.75 -3.12,-3.83 -4.13,-6.26 -1.01,-2.43 -1.51,-5.12 -1.51,-8.08 0,-3.08 0.56,-5.89 1.69,-8.44 1.12,-2.55 2.66,-4.72 4.62,-6.53 1.95,-1.8 4.25,-3.21 6.88,-4.22 2.64,-1.01 5.43,-1.51 8.39,-1.51zm0.18 31.88c1.6,0 3.09,-0.28 4.48,-0.84 1.39,-0.56 2.61,-1.33 3.64,-2.31 1.04,-0.98 1.85,-2.13 2.44,-3.46 0.59,-1.33 0.89,-2.8 0.89,-4.4 0,-1.66 -0.28,-3.18 -0.84,-4.57 -0.56,-1.39 -1.35,-2.6 -2.35,-3.64 -1.01,-1.04 -2.21,-1.84 -3.6,-2.4 -1.39,-0.56 -2.94,-0.84 -4.66,-0.84 -1.6,0 -3.09,0.27 -4.48,0.8 -1.39,0.53 -2.61,1.3 -3.64,2.31 -1.04,1.01 -1.85,2.22 -2.44,3.64 -0.59,1.42 -0.89,2.99 -0.89,4.7 0,1.6 0.3,3.06 0.89,4.4 0.59,1.33 1.41,2.49 2.44,3.46 1.04,0.98 2.25,1.75 3.64,2.31 1.39,0.56 2.89,0.84 4.48,0.84z"/>
   <path class="fil3" d="M487.7 706.02c-3.26,0 -6.25,-0.53 -8.97,-1.6 -2.72,-1.07 -5.06,-2.6 -7.01,-4.62 -1.95,-2.01 -3.48,-4.5 -4.57,-7.46 -1.1,-2.96 -1.64,-6.36 -1.64,-10.21 0,-4.68 0.75,-9.03 2.26,-13.05 1.51,-4.03 3.64,-7.64 6.39,-10.83 2.75,-3.2 6.1,-5.93 10.03,-8.21 3.94,-2.28 8.3,-4.04 13.1,-5.28l5.51 8.17c-6.75,1.42 -12.21,3.58 -16.38,6.48 -4.17,2.9 -7.21,6.69 -9.1,11.37 1.84,-1.95 3.82,-3.32 5.95,-4.09 2.13,-0.77 4.41,-1.15 6.84,-1.15 2.66,0 5.15,0.47 7.46,1.42 2.31,0.95 4.34,2.29 6.08,4.04 1.75,1.75 3.12,3.83 4.13,6.26 1.01,2.43 1.51,5.12 1.51,8.08 0,3.08 -0.56,5.89 -1.69,8.44 -1.12,2.55 -2.66,4.72 -4.62,6.53 -1.95,1.8 -4.25,3.21 -6.88,4.22 -2.64,1.01 -5.43,1.51 -8.39,1.51zm-0.18 -31.88c-1.6,0 -3.09,0.28 -4.48,0.84 -1.39,0.56 -2.61,1.33 -3.64,2.31 -1.04,0.98 -1.85,2.13 -2.44,3.46 -0.59,1.33 -0.89,2.8 -0.89,4.4 0,1.66 0.28,3.18 0.84,4.57 0.56,1.39 1.35,2.6 2.35,3.64 1.01,1.04 2.21,1.84 3.6,2.4 1.39,0.56 2.94,0.84 4.66,0.84 1.6,0 3.09,-0.27 4.48,-0.8 1.39,-0.53 2.61,-1.3 3.64,-2.31 1.04,-1.01 1.85,-2.22 2.44,-3.64 0.59,-1.42 0.89,-2.99 0.89,-4.7 0,-1.6 -0.3,-3.06 -0.89,-4.4 -0.59,-1.33 -1.41,-2.49 -2.44,-3.46 -1.04,-0.98 -2.25,-1.75 -3.64,-2.31 -1.39,-0.56 -2.89,-0.84 -4.48,-0.84z"/>
  </g>
 </g>
</svg>
