<?xml version="1.0" encoding="UTF-8"?>
<!DOCTYPE svg PUBLIC "-//W3C//DTD SVG 1.1//EN" "http://www.w3.org/Graphics/SVG/1.1/DTD/svg11.dtd">
<!-- Creator: CorelDRAW 2020 (64-Bit) -->
<svg xmlns="http://www.w3.org/2000/svg" xml:space="preserve" width="38.7549mm" height="54.1866mm" version="1.1" style="shape-rendering:geometricPrecision; text-rendering:geometricPrecision; image-rendering:optimizeQuality; fill-rule:evenodd; clip-rule:evenodd"
viewBox="0 0 410.06 573.34"
 xmlns:xlink="http://www.w3.org/1999/xlink"
 xmlns:xodm="http://www.corel.com/coreldraw/odm/2003">
 <defs>
  <style type="text/css">
   <![CDATA[
    .fil1 {fill:#FEFEFE;fill-rule:nonzero}
    .fil0 {fill:#CFD1D2;fill-rule:nonzero}
    .fil2 {fill:#18B35E;fill-rule:nonzero}
    .fil3 {fill:#2B6A46;fill-rule:nonzero}
   ]]>
  </style>
 </defs>
 <g id="Слой_x0020_1">
  <metadata id="CorelCorpID_0Corel-Layer"/>
  <g id="_2860880597472">
   <g>
    <path class="fil0" d="M45.29 573.34c-24.22,0.03 -43.98,-19.31 -44.04,-43.12l-1.25 -486.84c-0.07,-23.96 19.67,-43.42 43.98,-43.38l321.72 0.6c24.21,0.05 43.91,19.53 43.91,43.43l0 485.8c0,23.76 -19.62,43.1 -43.75,43.14l-320.57 0.37z"/>
    <path class="fil1" d="M49.66 572.73c-23.9,0 -43.36,-19.39 -43.36,-43.22l0 -485.69c0,-23.83 19.46,-43.2 43.36,-43.2l317.04 0c23.91,0 43.36,19.37 43.36,43.2l0 485.69c0,23.83 -19.45,43.22 -43.36,43.22l-317.04 0z"/>
   </g>
   <g>
    <polygon class="fil2" points="62.89,134.9 50.09,118.76 62.89,102.6 75.68,118.76 "/>
    <polygon class="fil3" points="62.89,134.9 62.89,134.9 62.79,134.78 62.79,102.73 62.89,102.6 75.68,118.76 "/>
    <polygon class="fil2" points="347.15,438.43 359.95,454.57 347.15,470.73 334.36,454.57 "/>
    <polygon class="fil3" points="347.15,470.73 334.36,454.57 347.15,438.43 347.23,438.54 347.23,470.62 "/>
    <polygon class="fil2" points="201.41,50.71 160.23,102.7 201.41,154.71 242.59,102.7 "/>
    <path class="fil1" d="M201.41 154.71l-0.28 -0.34 0 -0.01 0.28 0.35 41.18 -52 -41.18 52zm-0.28 -103.65l0 -0.01 0.28 -0.35 -0.28 0.35z"/>
    <polygon class="fil3" points="201.41,154.71 201.13,154.36 201.13,51.06 201.41,50.71 242.59,102.7 "/>
    <polygon class="fil2" points="201.41,234.55 160.23,286.54 201.41,338.54 242.59,286.54 "/>
    <path class="fil1" d="M201.41 338.54l-0.28 -0.34 0 -0.01 0.28 0.35 41.18 -52 -41.18 52zm-0.28 -103.65l0 0 0.28 -0.35 -0.28 0.35z"/>
    <polygon class="fil3" points="201.41,338.54 201.13,338.2 201.13,234.9 201.41,234.55 242.59,286.54 "/>
    <polygon class="fil2" points="201.41,418.39 242.59,470.37 201.41,522.39 160.23,470.37 "/>
    <polygon class="fil3" points="201.41,522.39 160.23,470.37 201.41,418.39 201.68,418.73 201.68,522.04 "/>
    <path class="fil3" d="M71.75 64.01c2.14,0.86 3.81,2.14 5.01,3.86 1.2,1.71 1.8,3.73 1.8,6.04 0,2.06 -0.39,3.91 -1.16,5.56 -0.77,1.65 -1.89,3.06 -3.34,4.24 -1.46,1.18 -3.21,2.08 -5.27,2.7 -2.06,0.62 -4.35,0.93 -6.88,0.93 -2.18,0 -4.25,-0.25 -6.2,-0.74 -1.95,-0.49 -3.55,-1.1 -4.79,-1.83l-1.22 -7.71c1.93,1.29 3.78,2.21 5.56,2.76 1.78,0.56 3.67,0.84 5.69,0.84 3.04,0 5.41,-0.56 7.1,-1.67 1.69,-1.11 2.54,-2.7 2.54,-4.76 0,-1.16 -0.22,-2.1 -0.68,-2.83 -0.45,-0.73 -1.07,-1.3 -1.86,-1.7 -0.79,-0.41 -1.72,-0.7 -2.8,-0.87 -1.07,-0.17 -2.21,-0.26 -3.41,-0.26l-4.24 0 -0.58 -6.68 3.92 0c2.7,0 4.66,-0.47 5.88,-1.41 1.22,-0.94 1.83,-2.27 1.83,-3.98 0,-1.67 -0.68,-2.92 -2.03,-3.76 -1.35,-0.84 -3.29,-1.25 -5.82,-1.25 -3.43,0 -6.88,0.86 -10.35,2.57l0.64 -6.88c0.56,-0.3 1.23,-0.59 2.02,-0.87 0.79,-0.28 1.67,-0.54 2.64,-0.77 0.96,-0.23 1.97,-0.42 3.02,-0.55 1.05,-0.13 2.09,-0.19 3.12,-0.19 4.67,0 8.29,0.95 10.86,2.86 2.57,1.91 3.86,4.68 3.86,8.32 0,1.8 -0.44,3.4 -1.32,4.79 -0.88,1.39 -2.07,2.47 -3.57,3.25z"/>
    <path class="fil3" d="M338.31 509.33c-2.14,-0.86 -3.81,-2.14 -5.01,-3.86 -1.2,-1.71 -1.8,-3.73 -1.8,-6.04 0,-2.06 0.39,-3.91 1.16,-5.56 0.77,-1.65 1.89,-3.06 3.34,-4.24 1.46,-1.18 3.21,-2.08 5.27,-2.7 2.06,-0.62 4.35,-0.93 6.88,-0.93 2.18,0 4.25,0.25 6.2,0.74 1.95,0.49 3.55,1.1 4.79,1.83l1.22 7.71c-1.93,-1.29 -3.78,-2.21 -5.56,-2.76 -1.78,-0.56 -3.67,-0.84 -5.69,-0.84 -3.04,0 -5.41,0.56 -7.1,1.67 -1.69,1.11 -2.54,2.7 -2.54,4.76 0,1.16 0.22,2.1 0.68,2.83 0.45,0.73 1.07,1.3 1.86,1.7 0.79,0.41 1.72,0.7 2.8,0.87 1.07,0.17 2.21,0.26 3.41,0.26l4.24 0 0.58 6.68 -3.92 0c-2.7,0 -4.66,0.47 -5.88,1.41 -1.22,0.94 -1.83,2.27 -1.83,3.98 0,1.67 0.68,2.92 2.03,3.76 1.35,0.84 3.29,1.25 5.82,1.25 3.43,0 6.88,-0.86 10.35,-2.57l-0.64 6.88c-0.56,0.3 -1.23,0.59 -2.02,0.87 -0.79,0.28 -1.67,0.54 -2.64,0.77 -0.96,0.23 -1.97,0.42 -3.02,0.55 -1.05,0.13 -2.09,0.19 -3.12,0.19 -4.67,0 -8.29,-0.95 -10.86,-2.86 -2.57,-1.91 -3.86,-4.68 -3.86,-8.32 0,-1.8 0.44,-3.4 1.32,-4.79 0.88,-1.39 2.07,-2.47 3.57,-3.25z"/>
   </g>
  </g>
 </g>
</svg>
