<?xml version="1.0" encoding="UTF-8"?>
<!DOCTYPE svg PUBLIC "-//W3C//DTD SVG 1.1//EN" "http://www.w3.org/Graphics/SVG/1.1/DTD/svg11.dtd">
<!-- Creator: CorelDRAW 2020 (64-Bit) -->
<svg xmlns="http://www.w3.org/2000/svg" xml:space="preserve" width="38.7549mm" height="54.1866mm" version="1.1" style="shape-rendering:geometricPrecision; text-rendering:geometricPrecision; image-rendering:optimizeQuality; fill-rule:evenodd; clip-rule:evenodd"
viewBox="0 0 275.2 384.78"
 xmlns:xlink="http://www.w3.org/1999/xlink"
 xmlns:xodm="http://www.corel.com/coreldraw/odm/2003">
 <defs>
  <style type="text/css">
   <![CDATA[
    .str0 {stroke:#18B35E;stroke-width:0.54;stroke-miterlimit:10}
    .fil1 {fill:#FEFEFE;fill-rule:nonzero}
    .fil0 {fill:#CFD1D2;fill-rule:nonzero}
    .fil2 {fill:#18B35E;fill-rule:nonzero}
    .fil3 {fill:#2B6A46;fill-rule:nonzero}
   ]]>
  </style>
 </defs>
 <g id="Слой_x0020_1">
  <metadata id="CorelCorpID_0Corel-Layer"/>
  <g id="_2862570312624">
   <g>
    <path class="fil0" d="M30.39 384.78c-16.25,0.02 -29.52,-12.96 -29.55,-28.94l-0.84 -326.73c-0.05,-16.08 13.2,-29.14 29.52,-29.11l215.91 0.4c16.25,0.03 29.47,13.1 29.47,29.15l0 326.03c0,15.95 -13.17,28.93 -29.36,28.95l-215.14 0.25z"/>
    <path class="fil1" d="M33.33 384.37c-16.04,0 -29.1,-13.01 -29.1,-29l0 -325.95c0,-15.99 13.06,-28.99 29.1,-28.99l212.77 0c16.04,0 29.1,13 29.1,28.99l0 325.95c0,15.99 -13.05,29 -29.1,29l-212.77 0z"/>
   </g>
   <g>
    <polygon class="fil2 str0" points="185.87,33.78 158.48,68.35 185.87,102.94 213.25,68.35 "/>
    <polygon class="fil1" points="185.69,34.01 185.69,34.01 185.87,33.78 "/>
    <polygon class="fil3" points="185.87,102.94 185.87,102.94 185.69,102.71 185.69,34.01 185.87,33.78 213.25,68.35 "/>
    <polygon class="fil2 str0" points="87.5,156.03 114.87,190.6 87.5,225.19 60.11,190.6 "/>
    <polygon class="fil3" points="87.5,225.19 60.11,190.6 87.5,156.03 87.68,156.26 87.68,224.96 "/>
    <polygon class="fil2 str0" points="87.5,278.28 114.87,312.85 87.5,347.43 60.11,312.85 "/>
    <polygon class="fil1" points="87.5,347.43 60.11,312.85 87.5,347.43 87.68,347.2 87.68,347.2 "/>
    <polygon class="fil3" points="87.5,347.43 60.11,312.85 87.5,278.28 87.68,278.51 87.68,347.2 "/>
    <polygon class="fil2" points="87.5,33.78 114.87,68.35 87.5,102.94 60.11,68.35 "/>
    <polygon class="fil3" points="87.5,102.94 60.11,68.35 87.5,33.78 87.67,34.01 87.67,102.71 "/>
    <polygon class="fil2 str0" points="185.87,156.03 158.48,190.6 185.87,225.19 213.25,190.6 "/>
    <path class="fil1" d="M185.87 225.19l-0.18 -0.23 0.18 0.23 27.38 -34.59 -27.38 34.59zm-0.18 -68.92l0 0 0.18 -0.23 -0.18 0.23z"/>
    <polygon class="fil3" points="185.87,225.19 185.69,224.96 185.69,156.26 185.87,156.03 213.25,190.6 "/>
    <polygon class="fil2 str0" points="185.87,278.28 158.48,312.85 185.87,347.43 213.25,312.85 "/>
    <polygon class="fil1" points="185.87,347.43 185.69,347.2 185.69,347.2 185.87,347.43 213.25,312.85 "/>
    <polygon class="fil3" points="185.87,347.43 185.69,347.2 185.69,278.51 185.87,278.28 213.25,312.85 "/>
    <polygon class="fil2 str0" points="29.18,90.73 21.2,80.67 29.18,70.6 37.15,80.67 "/>
    <polygon class="fil1" points="29.18,90.73 29.11,90.66 29.11,90.65 29.18,90.73 37.15,80.67 "/>
    <polygon class="fil3" points="29.18,90.73 29.11,90.65 29.11,70.68 29.18,70.6 37.15,80.67 "/>
    <polygon class="fil2 str0" points="245.9,293.91 253.87,303.97 245.9,314.04 237.93,303.97 "/>
    <path class="fil1" d="M245.9 314.04l-7.97 -10.07 7.97 10.07 0.05 -0.07 0 0 -0.05 0.07zm0.05 -20.06l-0.05 -0.07 0.05 0.06 0 0.01z"/>
    <polygon class="fil3" points="245.9,314.04 237.93,303.97 245.9,293.91 245.95,293.98 245.95,313.97 "/>
    <path class="fil3" d="M31.43 40.41c1.33,0 2.58,0.24 3.75,0.73 1.17,0.49 2.19,1.16 3.07,2.02 0.87,0.86 1.56,1.9 2.07,3.11 0.5,1.21 0.76,2.56 0.76,4.04 0,1.54 -0.29,2.95 -0.87,4.22 -0.58,1.27 -1.36,2.37 -2.33,3.29 -0.98,0.92 -2.12,1.63 -3.42,2.13 -1.3,0.5 -2.7,0.76 -4.18,0.76 -1.63,0 -3.12,-0.27 -4.49,-0.8 -1.36,-0.53 -2.53,-1.3 -3.51,-2.31 -0.98,-1.01 -1.74,-2.26 -2.29,-3.75 -0.55,-1.5 -0.82,-3.19 -0.82,-5.09 0,-2.34 0.38,-4.52 1.13,-6.53 0.75,-2.01 1.82,-3.82 3.2,-5.42 1.38,-1.6 3.05,-2.97 5.02,-4.11 1.97,-1.14 4.15,-2.02 6.55,-2.64l2.75 4.09c-3.38,0.68 -6.12,1.75 -8.22,3.2 -2.1,1.45 -3.63,3.36 -4.58,5.73 0.92,-1.01 1.92,-1.7 3,-2.09 1.08,-0.38 2.21,-0.58 3.4,-0.58zm-1.24 15.6c0.8,0 1.55,-0.13 2.24,-0.4 0.7,-0.27 1.3,-0.65 1.82,-1.16 0.52,-0.5 0.93,-1.11 1.22,-1.82 0.3,-0.71 0.44,-1.51 0.44,-2.4 0,-0.77 -0.15,-1.49 -0.44,-2.16 -0.3,-0.67 -0.7,-1.24 -1.22,-1.73 -0.52,-0.49 -1.13,-0.87 -1.82,-1.16 -0.7,-0.28 -1.44,-0.42 -2.24,-0.42 -0.8,0 -1.55,0.13 -2.24,0.4 -0.7,0.27 -1.3,0.64 -1.82,1.13 -0.52,0.49 -0.93,1.07 -1.22,1.73 -0.3,0.67 -0.44,1.4 -0.44,2.2 0,0.83 0.14,1.59 0.42,2.29 0.28,0.7 0.67,1.3 1.18,1.82 0.5,0.52 1.1,0.93 1.8,1.22 0.7,0.3 1.47,0.44 2.33,0.44z"/>
    <path class="fil3" d="M244.05 344.21c-1.33,0.06 -2.59,-0.13 -3.78,-0.56 -1.19,-0.44 -2.24,-1.06 -3.15,-1.88 -0.91,-0.82 -1.65,-1.82 -2.21,-3.01 -0.56,-1.19 -0.87,-2.53 -0.94,-4 -0.07,-1.54 0.15,-2.96 0.67,-4.26 0.52,-1.3 1.25,-2.43 2.18,-3.39 0.94,-0.96 2.04,-1.72 3.32,-2.29 1.28,-0.56 2.66,-0.88 4.14,-0.95 1.63,-0.07 3.13,0.12 4.52,0.59 1.39,0.47 2.59,1.19 3.61,2.15 1.02,0.96 1.84,2.18 2.46,3.65 0.62,1.47 0.97,3.15 1.05,5.04 0.11,2.34 -0.17,4.53 -0.83,6.58 -0.66,2.05 -1.64,3.9 -2.95,5.56 -1.3,1.66 -2.91,3.11 -4.83,4.34 -1.92,1.23 -4.06,2.21 -6.43,2.94l-2.94 -3.96c3.34,-0.83 6.03,-2.02 8.06,-3.57 2.04,-1.55 3.47,-3.52 4.31,-5.93 -0.87,1.05 -1.84,1.79 -2.9,2.22 -1.06,0.43 -2.19,0.68 -3.37,0.73zm0.53 -15.64c-0.8,0.04 -1.54,0.2 -2.22,0.5 -0.68,0.3 -1.27,0.71 -1.77,1.24 -0.49,0.53 -0.87,1.15 -1.14,1.88 -0.26,0.72 -0.38,1.53 -0.34,2.42 0.04,0.77 0.22,1.48 0.54,2.13 0.33,0.65 0.76,1.21 1.3,1.68 0.54,0.46 1.16,0.82 1.87,1.07 0.71,0.25 1.46,0.36 2.26,0.32 0.8,-0.04 1.54,-0.2 2.22,-0.5 0.68,-0.3 1.27,-0.7 1.77,-1.21 0.5,-0.51 0.88,-1.11 1.14,-1.79 0.27,-0.68 0.38,-1.42 0.34,-2.22 -0.04,-0.83 -0.21,-1.58 -0.53,-2.27 -0.31,-0.68 -0.73,-1.27 -1.26,-1.77 -0.53,-0.49 -1.14,-0.87 -1.85,-1.14 -0.71,-0.26 -1.49,-0.38 -2.35,-0.34z"/>
   </g>
  </g>
 </g>
</svg>
