<?xml version="1.0" encoding="UTF-8"?>
<!DOCTYPE svg PUBLIC "-//W3C//DTD SVG 1.1//EN" "http://www.w3.org/Graphics/SVG/1.1/DTD/svg11.dtd">
<!-- Creator: CorelDRAW 2020 (64-Bit) -->
<svg xmlns="http://www.w3.org/2000/svg" xml:space="preserve" width="38.7549mm" height="54.1866mm" version="1.1" style="shape-rendering:geometricPrecision; text-rendering:geometricPrecision; image-rendering:optimizeQuality; fill-rule:evenodd; clip-rule:evenodd"
viewBox="0 0 236.33 330.44"
 xmlns:xlink="http://www.w3.org/1999/xlink"
 xmlns:xodm="http://www.corel.com/coreldraw/odm/2003">
 <defs>
  <style type="text/css">
   <![CDATA[
    .fil1 {fill:#FEFEFE;fill-rule:nonzero}
    .fil0 {fill:#CFD1D2;fill-rule:nonzero}
    .fil2 {fill:#2B6A46;fill-rule:nonzero}
   ]]>
  </style>
 </defs>
 <g id="Слой_x0020_1">
  <metadata id="CorelCorpID_0Corel-Layer"/>
  <g id="_2158913006048">
   <g>
    <path class="fil0" d="M26.1 330.44c-13.96,0.02 -25.35,-11.13 -25.38,-24.85l-0.72 -280.59c-0.04,-13.81 11.34,-25.02 25.35,-25l185.42 0.34c13.95,0.03 25.31,11.25 25.31,25.03l0 279.99c0,13.69 -11.31,24.84 -25.22,24.86l-184.76 0.22z"/>
    <path class="fil1" d="M28.62 330.09c-13.77,0 -24.99,-11.18 -24.99,-24.91l0 -279.92c0,-13.73 11.22,-24.9 24.99,-24.9l182.73 0c13.78,0 24.99,11.17 24.99,24.9l0 279.92c0,13.73 -11.21,24.91 -24.99,24.91l-182.73 0z"/>
   </g>
   <g>
    <g>
     <path class="fil2" d="M189.51 121.88l-1.14 0.9c-0.94,0.6 -2.38,1.5 -2.68,3.34 -0.25,1.51 0.7,2.94 1.53,4.2l0.63 1.03c0.4,1.27 0.53,3.11 0.33,4.48 -0.12,0.8 -0.26,1.93 -0.42,3.26 -0.43,3.44 -1.59,12.75 -2.94,16.58 -8.78,-12.82 -21.2,-20.79 -31.17,-19.62 -4.91,0.57 -9.82,-1.13 -13.17,-4.58 -2.64,-2.72 -3.89,-6.15 -3.4,-9.41 0.17,-1.17 -0.64,-2.26 -1.82,-2.43 -1.18,-0.18 -2.26,0.63 -2.43,1.81 -0.67,4.59 0.99,9.34 4.57,13.02 4.29,4.41 10.55,6.6 16.76,5.85 8.57,-1.09 20.13,6.95 27.57,18.93l0.29 0.46c0.18,1.16 0.42,2.3 0.7,3.39 0.43,1.68 0.84,3.27 0.84,4.94 0.02,2.59 -0.32,7.32 -2.65,10.07l-1.61 1.06c-0.91,0.49 -1.95,1.05 -2.68,1.99 -1.15,1.47 -1.36,2.98 -1.53,4.32l-0.27 1.6c-0.68,2.82 -3.22,5.47 -5.36,7.47 -3.18,2.96 -6.1,4.33 -10.79,5.06 -1,0.15 -1.75,0.97 -1.82,1.98 -0.24,3.43 -8.13,7.14 -13.46,8.18 -5.65,1.1 -14.11,0.95 -19.33,-3.15 -1.62,-1.26 -2.47,-3.06 -3.06,-6.41 0.7,-3.22 1.17,-6.06 1.41,-8.16 0.45,-4.07 -0.38,-11.38 -0.87,-15.15 0.21,-9.9 0.79,-16.76 1.3,-22.8 0.5,-5.82 0.95,-11.32 0.95,-18.19 0,-7.87 -1.34,-21.56 -2.76,-34.93l0.17 -0.76c0.04,-2.62 1.57,-8.07 5.03,-9.42 3.16,-1.25 7.74,1.08 13.22,6.75 0.82,0.85 2.18,0.88 3.04,0.05 0.85,-0.83 0.88,-2.18 0.05,-3.03 -6.88,-7.12 -12.9,-9.73 -17.88,-7.77 -2,0.79 -3.54,2.24 -4.71,3.95 -0.72,-6.61 -1.37,-12.71 -1.76,-17.38 -1.16,-13.85 1.9,-20.58 2.38,-21.55 1.36,-1.38 10.48,-10.13 19.53,-7.4 7.69,2.32 12.31,6.3 17.7,12.39 0.81,0.91 1.94,1.79 3.12,2.72 1.96,1.54 4.65,3.64 4.42,5.07 -0.18,1.13 0.55,2.2 1.66,2.43 6.76,1.49 12.2,11.13 13.88,19.44 0.56,2.76 -1.59,11.83 -6.06,14.38 -2.47,1.41 -5.56,0.49 -9.14,-2.75 -3.67,-3.33 -6.08,-11.04 -4.65,-13 0.45,-0.61 2.4,-0.4 5.65,1.47 1.04,0.59 2.35,0.25 2.93,-0.78 0.6,-1.03 0.24,-2.34 -0.78,-2.93 -6.67,-3.86 -9.81,-2.28 -11.27,-0.29 -3.32,4.56 0.85,14.73 5.23,18.7 3.76,3.41 6.99,4.53 9.61,4.53 1.81,0 3.33,-0.54 4.54,-1.22 2.96,-1.68 5.03,-4.93 6.37,-8.34 0.68,0.1 1.68,0.59 2.47,2.43 0.6,1.41 0.63,3.12 0.62,5.04l-0.5 1.98c-0.4,1.33 -0.72,2.38 -0.55,3.33 0.23,1.33 1.15,2.38 2.05,3.38l1.06 1.35c0.61,1.25 0.91,2.62 1.17,4.05 0.34,1.91 0.5,3.04 -0.11,4.07zm-77.24 84.73c-5.24,4.1 -13.7,4.25 -19.33,3.15 -5.34,-1.05 -13.23,-4.76 -13.46,-8.18 -0.07,-1.01 -0.82,-1.83 -1.82,-1.98 -4.69,-0.73 -7.62,-2.1 -10.8,-5.06 -2.14,-2 -4.68,-4.65 -5.35,-7.47l-0.27 -1.6c-0.18,-1.34 -0.37,-2.85 -1.53,-4.32 -0.73,-0.93 -1.77,-1.5 -2.68,-1.99l-1.6 -1.06c-2.34,-2.75 -2.67,-7.48 -2.66,-10.07 0.01,-1.68 0.41,-3.27 0.84,-4.94 0.29,-1.1 0.52,-2.24 0.7,-3.4 1.02,-1.28 1.84,-3.27 2.66,-5.43l0.16 -0.43c2.95,-7.76 6.53,-12.44 10.67,-13.91 3.3,-1.19 7.09,-0.42 11.93,2.37 1.04,0.59 2.35,0.24 2.93,-0.79 0.6,-1.03 0.25,-2.33 -0.78,-2.93 -5.93,-3.42 -11.01,-4.31 -15.52,-2.7 -5.45,1.95 -9.79,7.32 -13.25,16.44l-0.17 0.45c-0.23,0.62 -0.69,1.84 -1.16,2.86l-0.08 -1.81c0.02,-0.76 0.03,-1.44 0.02,-1.96 -0.14,-3.41 -1.07,-6.55 -1.97,-9.58 -0.66,-2.2 -1.27,-4.29 -1.58,-6.42 -0.2,-1.37 -0.07,-3.21 0.31,-4.45l0.64 -1.06c0.83,-1.26 1.78,-2.69 1.52,-4.2 -0.29,-1.84 -1.73,-2.74 -2.68,-3.34l-1.14 -0.9c-0.61,-1.04 -0.44,-2.16 -0.08,-4.2 0.24,-1.31 0.53,-2.68 1.15,-3.93l1.05 -1.34c0.89,-1 1.82,-2.05 2.06,-3.36 0.17,-0.97 -0.15,-2.02 -0.56,-3.35l-0.5 -1.97c-0.02,-1.93 0.02,-3.65 0.62,-5.05 1.4,-3.27 6.45,-2.77 6.51,-2.76 1.29,0.24 2.63,0.25 3.99,-0.03 1.49,-0.29 2.84,-1.19 4.15,-2.05 3.44,-2.26 5.91,-3.91 10.59,2.89 0.68,0.98 2.02,1.23 2.98,0.56 0.98,-0.67 1.23,-2.01 0.56,-2.99 -7.05,-10.24 -12.95,-6.37 -16.48,-4.04 -0.97,0.63 -1.98,1.29 -2.65,1.43 -1.63,0.32 -3.21,0.02 -4.3,-0.84 -0.54,-0.43 -1.15,-0.91 -0.45,-4.37 1.69,-8.31 7.13,-17.95 13.88,-19.44 1.03,-0.22 1.74,-1.15 1.68,-2.21 -0.1,-1.83 0.17,-3.1 0.78,-3.69 0.85,-0.84 2.86,-0.68 4.64,-0.54 2.29,0.19 6.09,0.48 6.53,-3.53 0.71,-5.65 3.32,-9.62 7.55,-11.49 6.46,-2.84 15.91,-0.67 25.56,5.78 -1.21,3.14 -3.21,10.33 -2.2,22.38 0.46,5.33 1.23,12.48 2.05,20.18 1.67,15.4 3.55,32.85 3.55,41.99 0,6.68 -0.44,11.85 -0.94,17.82l-0.13 1.53c-3.48,-11.82 -9.72,-19.59 -15.65,-21.66 -4.12,-1.45 -7.99,-0.27 -10.9,3.3 -0.75,0.92 -0.61,2.27 0.31,3.02 0.92,0.75 2.27,0.61 3.02,-0.31 1.75,-2.16 3.77,-2.8 6.16,-1.96 7.29,2.54 15.3,17.38 15.55,37.2 0.02,0.12 1.78,11.69 1.22,16.71 -0.8,7.25 -2.95,12.73 -5.88,15.04zm80.94 -82.56c1.45,-2.45 1.02,-4.88 0.61,-7.13 -0.29,-1.61 -0.67,-3.33 -1.5,-5.05 -0.42,-0.86 -1.08,-1.6 -1.71,-2.32l-1.02 -1.05 0.41 -1.57c0.33,-1.09 0.67,-2.21 0.68,-3.18 0.02,-1.87 0.04,-4.42 -0.96,-6.77 -1.31,-3.05 -3.29,-4.36 -5.12,-4.82 0.61,-2.69 0.77,-5.14 0.48,-6.54 -1.32,-6.52 -6.22,-19.06 -15.55,-22.32 -0.6,-2.95 -3.54,-5.25 -5.98,-7.15 -1.04,-0.82 -2.01,-1.58 -2.55,-2.19 -5.76,-6.5 -11.06,-11.05 -19.68,-13.65 -10,-3.01 -19.37,4.34 -22.77,7.47 -10.88,-7.28 -21.9,-9.58 -29.76,-6.13 -5.58,2.45 -9.15,7.69 -10.07,14.76l-1.95 -0.09c-2.42,-0.19 -5.73,-0.45 -7.97,1.74 -1.26,1.23 -1.95,2.96 -2.07,5.26 -9.29,3.29 -14.16,15.8 -15.48,22.3 -0.45,2.23 -0.77,4.68 0.41,6.76 -1.98,0.72 -3.96,2.05 -5.05,4.6 -1,2.35 -0.98,4.9 -0.97,6.77 0.01,0.97 0.35,2.1 0.69,3.18l0.44 1.28 -1.04 1.34c-0.64,0.72 -1.3,1.46 -1.71,2.31 -0.83,1.72 -1.22,3.44 -1.53,5.18 -0.39,2.13 -0.82,4.56 0.62,7.01 0.71,1.2 1.77,1.86 2.54,2.35l0.59 0.39 -0.73 1.17 -1.16 2.12c-0.57,1.88 -0.75,4.38 -0.47,6.37 0.36,2.45 1.05,4.77 1.72,7.02 0.88,2.91 1.68,5.65 1.79,8.52l-0.02 1.69c-0.09,3.32 -0.16,6.74 2.17,7.81l-0.12 0.52c-0.48,1.86 -0.97,3.79 -0.98,6 -0.02,3.87 0.61,9.25 3.68,12.87 0.82,0.97 1.89,1.54 2.82,2.05l1.35 0.87c0.41,0.52 0.5,1.09 0.64,2.22l0.35 2.05c0.93,3.92 3.86,7.05 6.61,9.61 3.49,3.25 6.84,4.98 11.6,5.91 2.09,6.18 12.68,9.62 16.57,10.39 2.14,0.42 4.55,0.67 7.05,0.67 5.49,0 11.38,-1.24 15.75,-4.66 1.36,-1.06 2.47,-2.45 3.38,-4 0.7,1.47 1.66,2.85 3.12,4 4.37,3.43 10.27,4.66 15.76,4.66 2.49,0 4.9,-0.25 7.05,-0.67 3.88,-0.77 14.47,-4.21 16.56,-10.39 4.77,-0.93 8.12,-2.66 11.61,-5.91 2.74,-2.56 5.67,-5.69 6.61,-9.61l0.35 -2.05c0.15,-1.14 0.24,-1.7 0.64,-2.22l1.36 -0.87c0.94,-0.51 2.01,-1.09 2.83,-2.05 3.07,-3.61 3.7,-8.99 3.68,-12.87 -0.01,-2.21 -0.5,-4.13 -0.98,-6l-0.32 -1.35c2.38,-1.63 3.69,-6.9 5.46,-21.05 0.16,-1.3 0.29,-2.39 0.41,-3.16 0.29,-1.99 0.1,-4.49 -0.47,-6.38l-1.15 -2.11 -0.73 -1.17 0.58 -0.39c0.77,-0.49 1.84,-1.15 2.54,-2.36z"/>
     <path class="fil2" d="M129.85 186.92c-1.15,0.31 -1.82,1.5 -1.5,2.64 0.88,3.22 4.95,5.41 9.88,5.41l1.04 -0.03c5.56,-0.35 11.82,-3.55 14.53,-11.22l1.16 0.83c0.88,0.48 2,0.85 3.34,0.85 1.96,0 4.4,-0.79 7.31,-3.21 0.91,-0.76 1.03,-2.11 0.27,-3.02 -0.76,-0.92 -2.11,-1.04 -3.02,-0.27 -1.68,1.4 -4.06,2.86 -5.84,1.89 -2.02,-1.1 -3.21,-5.04 -2.73,-8.98 0.16,-1.31 0.94,-5.62 4.14,-6.45 1.15,-0.3 1.83,-1.47 1.54,-2.61 -0.29,-1.15 -1.45,-1.84 -2.61,-1.54 -3.94,1.01 -6.68,4.78 -7.33,10.07 -0.29,2.36 -0.12,5.05 0.63,7.46 -1.56,10.49 -9.31,11.77 -11.65,11.91 -3.58,0.22 -6.22,-1.15 -6.52,-2.22 -0.31,-1.15 -1.5,-1.81 -2.64,-1.5z"/>
     <path class="fil2" d="M84.87 178.64l-0.79 -0.32c0.57,-2.17 0.55,-4.44 -0.12,-6.02 -1.48,-3.54 -4.67,-5.08 -7.48,-6.43 -0.94,-0.45 -1.86,-0.89 -2.72,-1.42 -1.79,-1.11 -3.81,-2.37 -3.26,-11.85 0.08,-1.19 -0.83,-2.21 -2.01,-2.27 -1.16,-0.08 -2.2,0.84 -2.27,2.02 -0.65,11.11 2.12,13.79 5.3,15.76 0.96,0.6 2.03,1.12 3.11,1.63 2.42,1.17 4.52,2.17 5.38,4.22 0.51,1.21 -0.02,4.96 -1.8,6.27 -1.09,0.81 -2.68,0.35 -4.72,-1.35 -0.9,-0.76 -2.26,-0.64 -3.02,0.27 -0.76,0.91 -0.63,2.26 0.28,3.02 2.48,2.08 4.6,2.74 6.3,2.74 1.66,0 2.91,-0.64 3.72,-1.24l1.47 -1.49 1.12 0.45c4.48,1.71 8.02,3.06 8.02,11.43 0,1.19 0.96,2.15 2.14,2.15 1.19,0 2.15,-0.96 2.15,-2.15 0,-11.32 -5.98,-13.61 -10.78,-15.44z"/>
     <path class="fil2" d="M86.64 85.13c2.6,-1.78 5.17,-1.97 7.83,-0.59 4.4,2.27 7.79,8.38 7.84,11.22 0.02,1.17 0.98,2.11 2.15,2.11 1.23,-0.02 2.17,-1 2.15,-2.18 -0.07,-4.08 -3.97,-11.75 -10.16,-14.95 -4.08,-2.11 -8.31,-1.82 -12.23,0.85 -0.98,0.68 -1.23,2.01 -0.56,2.99 0.68,0.98 2.02,1.23 2.99,0.56z"/>
     <path class="fil2" d="M172.61 119.36c-1,-0.63 -2.32,-0.35 -2.96,0.65 -0.35,0.55 -0.99,1.22 -2.47,1.09 -3,-0.32 -7.38,-3.88 -9.6,-9.85 -0.42,-1.1 -1.64,-1.67 -2.77,-1.26 -1.1,0.42 -1.68,1.66 -1.26,2.77 2.56,6.87 7.97,12.06 13.17,12.61l0.85 0.04c2.37,0 4.41,-1.1 5.68,-3.07 0.64,-1 0.35,-2.33 -0.65,-2.97z"/>
     <path class="fil2" d="M87.14 118.81c-0.76,-0.9 -2.12,-1.01 -3.02,-0.25 -0.99,0.84 -2,1.14 -3.17,0.99 -3.84,-0.52 -8.15,-5.76 -9.5,-7.74 -0.67,-0.98 -2,-1.24 -2.98,-0.57 -0.98,0.67 -1.24,2 -0.57,2.98 0.6,0.89 6.05,8.71 12.46,9.58l1.15 0.08c1.95,0 3.8,-0.7 5.39,-2.05 0.9,-0.77 1.01,-2.12 0.25,-3.02z"/>
    </g>
    <polygon class="fil2" points="67.63,264.33 61.69,264.33 54.64,275.87 47.59,264.33 41.65,264.33 41.65,290.31 47.59,290.31 47.59,275.2 54.31,286.23 54.97,286.23 61.69,275.2 61.69,290.31 67.63,290.31 "/>
    <polygon id="1" class="fil2" points="78.02,284.59 78.02,279.99 87.3,279.99 87.3,274.35 78.02,274.35 78.02,270.05 88.23,270.05 88.23,264.33 72.09,264.33 72.09,290.31 88.42,290.31 88.42,284.59 "/>
    <polygon id="2" class="fil2" points="117.74,264.33 111.8,264.33 104.75,275.87 97.7,264.33 91.76,264.33 91.76,290.31 97.7,290.31 97.7,275.2 104.42,286.23 105.08,286.23 111.8,275.2 111.8,290.31 117.74,290.31 "/>
    <path id="3" class="fil2" d="M134.59 290.83c7.46,0 13.51,-5.86 13.51,-13.51 0,-7.65 -6.05,-13.51 -13.51,-13.51 -7.46,0 -13.51,5.86 -13.51,13.51 0,7.65 6.05,13.51 13.51,13.51zm0 -5.79c-4.23,0 -7.57,-3.08 -7.57,-7.72 0,-4.64 3.34,-7.72 7.57,-7.72 4.23,0 7.57,3.08 7.57,7.72 0,4.64 -3.34,7.72 -7.57,7.72z"/>
    <path id="4" class="fil2" d="M165.1 290.31l6.38 0 -5.53 -9.54c2.86,-1.45 4.79,-4.34 4.79,-7.53 0,-4.94 -3.97,-8.91 -8.91,-8.91l-10.39 0 0 25.98 5.94 0 0 -8.54 2.82 0 4.9 8.54zm-7.72 -20.41l4.45 0c1.63,0 2.97,1.45 2.97,3.34 0,1.89 -1.34,3.34 -2.97,3.34l-4.45 0 0 -6.68z"/>
    <polygon id="5" class="fil2" points="194.69,264.33 187.93,264.33 182.99,274.35 178.06,264.33 171.3,264.33 180.02,280.33 180.02,290.31 185.96,290.31 185.96,280.33 "/>
   </g>
  </g>
 </g>
</svg>
