<?xml version="1.0" encoding="UTF-8"?>
<!DOCTYPE svg PUBLIC "-//W3C//DTD SVG 1.1//EN" "http://www.w3.org/Graphics/SVG/1.1/DTD/svg11.dtd">
<!-- Creator: CorelDRAW 2020 (64-Bit) -->
<svg xmlns="http://www.w3.org/2000/svg" xml:space="preserve" width="38.7549mm" height="54.1866mm" version="1.1" style="shape-rendering:geometricPrecision; text-rendering:geometricPrecision; image-rendering:optimizeQuality; fill-rule:evenodd; clip-rule:evenodd"
viewBox="0 0 410.06 573.34"
 xmlns:xlink="http://www.w3.org/1999/xlink"
 xmlns:xodm="http://www.corel.com/coreldraw/odm/2003">
 <defs>
  <style type="text/css">
   <![CDATA[
    .str0 {stroke:#18B35E;stroke-width:0.81;stroke-miterlimit:10}
    .fil1 {fill:#FEFEFE;fill-rule:nonzero}
    .fil0 {fill:#CFD1D2;fill-rule:nonzero}
    .fil2 {fill:#18B35E;fill-rule:nonzero}
    .fil3 {fill:#2B6A46;fill-rule:nonzero}
   ]]>
  </style>
 </defs>
 <g id="Слой_x0020_1">
  <metadata id="CorelCorpID_0Corel-Layer"/>
  <g id="_2860961416480">
   <g>
    <path class="fil0" d="M45.29 573.34c-24.22,0.03 -43.98,-19.31 -44.04,-43.12l-1.25 -486.84c-0.07,-23.96 19.67,-43.42 43.98,-43.38l321.72 0.6c24.21,0.05 43.91,19.53 43.91,43.43l0 485.8c0,23.76 -19.62,43.1 -43.75,43.14l-320.57 0.37z"/>
    <path class="fil1" d="M49.66 572.73c-23.9,0 -43.36,-19.39 -43.36,-43.22l0 -485.69c0,-23.83 19.46,-43.2 43.36,-43.2l317.04 0c23.91,0 43.36,19.37 43.36,43.2l0 485.69c0,23.83 -19.45,43.22 -43.36,43.22l-317.04 0z"/>
   </g>
   <g>
    <polygon class="fil2 str0" points="277.47,49.03 318.51,100.85 277.47,152.69 236.42,100.85 "/>
    <polygon class="fil3" points="277.47,152.69 236.42,100.85 277.47,49.03 277.73,49.39 277.73,152.34 "/>
    <polygon class="fil2 str0" points="277.47,171.19 318.51,223 277.47,274.85 236.42,223 "/>
    <polygon class="fil3" points="277.47,274.85 236.42,223 277.47,171.19 277.73,171.54 277.73,274.5 "/>
    <polygon class="fil2 str0" points="130.01,293.34 88.97,345.16 130.01,397 171.06,345.16 "/>
    <polygon class="fil3" points="130.01,397 130.01,397 129.74,396.66 129.74,293.69 130.01,293.34 171.06,345.16 "/>
    <polygon class="fil2 str0" points="130.01,415.5 88.97,467.31 130.01,519.14 171.06,467.31 "/>
    <polygon class="fil3" points="130.01,519.14 129.74,518.8 129.74,415.84 130.01,415.5 171.06,467.31 "/>
    <polygon class="fil2 str0" points="130.01,49.03 171.06,100.85 130.01,152.69 88.97,100.85 "/>
    <polygon class="fil3" points="130.01,152.69 88.97,100.85 130.01,49.03 130.28,49.39 130.28,152.34 "/>
    <polygon class="fil2" points="130.01,171.19 171.06,223 130.01,274.85 88.97,223 "/>
    <polygon class="fil3" points="130.01,274.85 88.97,223 130.01,171.19 130.28,171.54 130.28,274.5 "/>
    <polygon class="fil2 str0" points="277.46,293.34 236.42,345.16 277.46,397 318.51,345.16 "/>
    <polygon class="fil3" points="277.46,397 277.46,397 277.19,396.66 277.19,293.69 277.46,293.34 318.51,345.16 "/>
    <polygon class="fil2 str0" points="277.46,415.5 236.42,467.31 277.46,519.14 318.51,467.31 "/>
    <polygon class="fil3" points="277.46,519.14 277.19,518.8 277.19,415.84 277.46,415.5 318.51,467.31 "/>
    <polygon class="fil2 str0" points="42.61,134.4 30.66,119.31 42.61,104.22 54.56,119.31 "/>
    <polygon class="fil1" points="42.61,134.4 42.51,134.28 42.51,134.27 42.61,134.4 54.56,119.31 "/>
    <polygon class="fil3" points="42.61,134.4 42.51,134.27 42.51,104.34 42.61,104.22 54.56,119.31 "/>
    <polygon class="fil2 str0" points="367.44,438.93 379.4,454.02 367.44,469.11 355.5,454.02 "/>
    <path class="fil1" d="M367.44 469.11l-11.95 -15.09 11.95 15.09 0.09 -0.11 0 0.01 -0.09 0.1zm0.09 -30.07l-0.09 -0.11 0.09 0.09 0 0.02z"/>
    <polygon class="fil3" points="367.44,469.11 355.5,454.02 367.44,438.93 367.53,439.04 367.53,468.99 "/>
    <path class="fil3" d="M45.02 88.74c-2.31,0 -4.43,-0.29 -6.36,-0.87 -1.93,-0.58 -3.58,-1.41 -4.96,-2.5 -1.38,-1.09 -2.44,-2.44 -3.2,-4.06 -0.75,-1.62 -1.13,-3.45 -1.13,-5.49 0,-2.4 0.61,-4.51 1.83,-6.33 1.22,-1.82 2.76,-3.2 4.63,-4.13 -1.6,-0.98 -2.86,-2.23 -3.8,-3.76 -0.93,-1.53 -1.4,-3.3 -1.4,-5.29 0,-1.82 0.37,-3.44 1.1,-4.86 0.73,-1.42 1.74,-2.62 3.03,-3.6 1.29,-0.98 2.81,-1.73 4.56,-2.26 1.75,-0.53 3.65,-0.8 5.69,-0.8 2.04,0 3.94,0.25 5.69,0.77 1.75,0.51 3.27,1.26 4.56,2.26 1.29,1 2.3,2.21 3.03,3.63 0.73,1.42 1.1,3.04 1.1,4.86 0,2 -0.47,3.76 -1.4,5.29 -0.93,1.53 -2.22,2.79 -3.86,3.76 1.91,0.93 3.47,2.29 4.7,4.06 1.22,1.78 1.83,3.86 1.83,6.26 0,2.04 -0.39,3.87 -1.16,5.49 -0.78,1.62 -1.85,2.99 -3.23,4.1 -1.38,1.11 -3.02,1.96 -4.93,2.56 -1.91,0.6 -4.02,0.9 -6.33,0.9zm0 -26.04c1.91,0 3.52,-0.51 4.83,-1.53 1.31,-1.02 1.96,-2.38 1.96,-4.06 0,-1.73 -0.65,-3.1 -1.96,-4.09 -1.31,-1 -2.92,-1.5 -4.83,-1.5 -1.91,0 -3.51,0.5 -4.8,1.5 -1.29,1 -1.93,2.36 -1.93,4.09 0,1.69 0.63,3.04 1.9,4.06 1.26,1.02 2.87,1.53 4.83,1.53zm0 19.31c2.13,0 3.92,-0.59 5.36,-1.76 1.44,-1.18 2.16,-2.79 2.16,-4.83 0,-1.95 -0.72,-3.52 -2.16,-4.7 -1.44,-1.18 -3.23,-1.76 -5.36,-1.76 -2.22,0 -4.04,0.59 -5.46,1.76 -1.42,1.18 -2.13,2.74 -2.13,4.7 0,2.04 0.72,3.65 2.16,4.83 1.44,1.18 3.25,1.76 5.43,1.76z"/>
    <path class="fil3" d="M365.03 484.59c2.31,0 4.43,0.29 6.36,0.87 1.93,0.58 3.58,1.41 4.96,2.5 1.38,1.09 2.44,2.44 3.2,4.06 0.75,1.62 1.13,3.45 1.13,5.49 0,2.4 -0.61,4.51 -1.83,6.33 -1.22,1.82 -2.76,3.2 -4.63,4.13 1.6,0.98 2.86,2.23 3.8,3.76 0.93,1.53 1.4,3.3 1.4,5.29 0,1.82 -0.37,3.44 -1.1,4.86 -0.73,1.42 -1.74,2.62 -3.03,3.6 -1.29,0.98 -2.81,1.73 -4.56,2.26 -1.75,0.53 -3.65,0.8 -5.69,0.8 -2.04,0 -3.94,-0.25 -5.69,-0.77 -1.75,-0.51 -3.27,-1.26 -4.56,-2.26 -1.29,-1 -2.3,-2.21 -3.03,-3.63 -0.73,-1.42 -1.1,-3.04 -1.1,-4.86 0,-2 0.47,-3.76 1.4,-5.29 0.93,-1.53 2.22,-2.79 3.86,-3.76 -1.91,-0.93 -3.47,-2.29 -4.7,-4.06 -1.22,-1.78 -1.83,-3.86 -1.83,-6.26 0,-2.04 0.39,-3.87 1.16,-5.49 0.78,-1.62 1.85,-2.99 3.23,-4.1 1.38,-1.11 3.02,-1.96 4.93,-2.56 1.91,-0.6 4.02,-0.9 6.33,-0.9zm0 26.04c-1.91,0 -3.52,0.51 -4.83,1.53 -1.31,1.02 -1.96,2.38 -1.96,4.06 0,1.73 0.65,3.1 1.96,4.09 1.31,1 2.92,1.5 4.83,1.5 1.91,0 3.51,-0.5 4.8,-1.5 1.29,-1 1.93,-2.36 1.93,-4.09 0,-1.69 -0.63,-3.04 -1.9,-4.06 -1.26,-1.02 -2.87,-1.53 -4.83,-1.53zm0 -19.31c-2.13,0 -3.92,0.59 -5.36,1.76 -1.44,1.18 -2.16,2.79 -2.16,4.83 0,1.95 0.72,3.52 2.16,4.7 1.44,1.18 3.23,1.76 5.36,1.76 2.22,0 4.04,-0.59 5.46,-1.76 1.42,-1.18 2.13,-2.74 2.13,-4.7 0,-2.04 -0.72,-3.65 -2.16,-4.83 -1.44,-1.18 -3.25,-1.76 -5.43,-1.76z"/>
   </g>
  </g>
 </g>
</svg>
